<svg width="24" height="24" viewBox="0 0 24 24" fill="none" xmlns="http://www.w3.org/2000/svg">
<path d="M12.0008 2.72278C6.87682 2.72278 2.72363 6.87597 2.72363 12C2.72363 15.6919 4.88584 18.8703 8.00779 20.3635L8.29816 14.7527C8.29816 14.7527 7.75198 14.5734 7.63242 14.515C6.47394 14.0047 5.63236 12.5022 5.63236 10.5521C5.63236 8.4242 7.28264 6.59132 8.87815 6.57618C8.88017 6.57618 8.88017 6.57618 8.8815 6.57618C8.88219 6.57618 8.88352 6.57618 8.88416 6.57618C10.48 6.59126 12.1304 8.42414 12.1304 10.5521C12.1304 12.5022 11.2877 14.0041 10.1316 14.515C10.1226 14.519 9.46057 14.7594 9.46057 14.7594L9.78486 20.998C10.4965 21.1731 11.2364 21.2759 12.0021 21.2759C13.0347 21.2759 14.0236 21.1 14.9515 20.7891L15.2388 15.2294C14.4816 15.0628 13.8356 14.5807 13.4308 13.9759C12.9293 13.2246 13.8169 6.57554 13.8169 6.57554H14.3943V12.8151H14.9677V6.57624H15.5947V12.8164H16.1654V6.57624H16.816V12.8164H17.3887V6.57624H17.8318C17.8318 6.57624 18.7194 13.2253 18.2172 13.9766C17.8163 14.5755 17.1765 15.0562 16.4286 15.2267C16.4152 15.2315 16.4031 15.2361 16.4031 15.2361L16.6528 20.0184C19.4163 18.4118 21.2787 15.4268 21.2787 12.0001C21.2773 6.87602 17.1241 2.72278 12.0008 2.72278Z" fill="#AAACAE"/>
<path d="M6.9899 9.60875C7.02312 9.47347 7.06779 9.3449 7.06981 9.34259C7.08426 9.29191 7.05739 9.24019 7.00232 9.20731C6.94997 9.17912 6.88617 9.19356 6.85665 9.23886C6.85665 9.23886 6.7932 9.33993 6.7012 9.48931C6.62637 9.61788 6.5156 9.8233 6.44001 10.0791C6.37454 10.3033 6.29636 10.6014 6.26111 10.9351C6.24603 11.1104 6.24262 11.2685 6.24799 11.4312C6.26111 11.6168 6.28925 11.7756 6.34299 11.9572C6.52525 12.4752 6.66561 12.9768 7.17215 13.4716C7.33227 13.6361 7.49679 13.7482 7.61559 13.8308L7.65755 13.8603C7.68309 13.8771 7.70759 13.8926 7.73174 13.9067C7.83148 13.959 7.89822 13.9778 7.91036 13.9805C7.95999 13.9939 8.01108 13.9697 8.03217 13.9295C8.05199 13.8872 8.03754 13.8341 7.99628 13.8006C7.99628 13.8006 7.9385 13.7503 7.86436 13.6562C7.81368 13.5992 7.75861 13.5166 7.69453 13.4233C7.64923 13.3575 7.59583 13.283 7.54614 13.2104C7.29939 12.8338 7.15713 12.3081 6.96037 11.7696C6.92177 11.6528 6.89022 11.5014 6.87843 11.3728C6.86271 11.2244 6.85532 11.0815 6.85532 10.9488C6.8496 10.6407 6.86335 10.3761 6.89022 10.1616C6.92108 9.91963 6.94523 9.73801 6.9899 9.60875Z" fill="#AAACAE"/>
<path d="M12.0007 1C5.93571 1 1 5.93467 1 12C1 18.0639 5.93571 23 12.0007 23C18.0653 23 23.0001 18.0639 23.0001 12C23 5.93467 18.0653 1 12.0007 1ZM12.0007 22.1796C6.38719 22.1796 1.82009 17.6128 1.82009 12C1.82009 6.3865 6.38719 1.81939 12.0007 1.81939C17.6135 1.81939 22.181 6.3865 22.181 12C22.1809 17.6128 17.6134 22.1796 12.0007 22.1796Z" fill="#AAACAE"/>
</svg>
