<svg width="168" height="99" viewBox="0 0 168 99" fill="none" xmlns="http://www.w3.org/2000/svg">
<path d="M129.724 17.2688C121.789 17.1073 112.886 3.41868 89.3447 3.21679C61.5435 2.9947 44.9073 18.0562 44.9073 21.8115V27.8482C42.0201 28.0904 43.393 32.088 43.07 34.9347C43.07 39.8408 47.0676 43.8384 51.9535 43.8384H52.7207C54.9819 57.0222 74.0006 57.002 76.2416 43.8384H124.01C126.272 57.0222 145.29 57.002 147.531 43.8384C147.753 43.8182 148.056 43.8787 148.561 43.7172C160.695 40.5878 158.494 27.6261 158.535 27.4242C158.353 24.638 148.218 17.7331 129.724 17.2688ZM121.244 18.4398C111.412 19.7117 101.458 20.3578 91.3839 20.4386V7.2951C105.84 7.82003 112.199 13.3924 121.244 18.4398ZM87.3661 7.23453V20.4184C76.2214 20.3174 64.9758 19.4493 53.6696 17.8745C61.7252 11.4138 74.0611 7.497 87.3661 7.23453ZM64.4912 49.7136C60.1303 49.7136 56.5769 46.1602 56.5769 41.7992C56.5769 37.4383 60.1303 33.8849 64.4912 33.8849C68.8522 33.8849 72.4056 37.4383 72.4056 41.7992C72.4056 46.1602 68.8522 49.7136 64.4912 49.7136ZM135.781 49.7136C131.42 49.7136 127.867 46.1602 127.867 41.7992C127.867 37.4383 131.42 33.8849 135.781 33.8849C140.142 33.8849 143.695 37.4383 143.695 41.7992C143.695 46.1602 140.142 49.7136 135.781 49.7136Z" fill="#3D9BD6"/>
<path d="M49.4294 10.929C50.5398 10.929 51.4484 10.0205 51.4484 8.91008C51.4484 7.79965 50.5398 6.89111 49.4294 6.89111C34.6506 7.55737 29.6436 5.33651 29.6436 8.91008C29.6436 12.4836 34.5295 10.2426 49.4294 10.929Z" fill="#3D9BD6"/>
<path d="M21.5076 20.8021C36.2864 20.1359 41.2934 22.3567 41.2934 18.7831C41.2934 15.2096 36.4075 17.4506 21.5076 16.7642C18.8425 16.7642 18.8425 20.8021 21.5076 20.8021Z" fill="#3D9BD6"/>
<path d="M29.1189 26.6367H11.352C10.2415 26.6367 9.33301 27.5453 9.33301 28.6557C9.33301 29.7661 10.2415 30.6746 11.352 30.6746H29.1189C31.7839 30.6746 31.7839 26.6367 29.1189 26.6367Z" fill="#3D9BD6"/>
<path d="M59.576 86.264C56.912 86.264 54.8 85.376 53.264 83.576C51.752 81.776 51.176 79.52 51.584 76.808C51.992 74.144 53.168 71.984 55.16 70.376C57.152 68.768 59.456 67.952 62.072 67.952C65.072 67.952 67.616 69.176 68.984 70.976L66.608 73.184C65.48 71.792 63.92 71.096 61.928 71.096C60.152 71.096 58.592 71.648 57.272 72.752C55.952 73.856 55.16 75.32 54.896 77.144C54.68 78.8 55.016 80.216 55.952 81.392C56.888 82.544 58.208 83.12 59.912 83.12C61.928 83.12 63.896 82.28 65.216 81.008L65.6 78.416L60.488 78.44L60.92 75.536H69.08L68.072 82.736C65.552 85.088 62.72 86.264 59.576 86.264ZM75.8617 86.312C73.1497 86.312 70.8697 85.04 69.7897 82.616L72.2857 80.624C73.0537 82.28 74.4697 83.192 76.0777 83.192C77.6857 83.192 78.8617 82.256 79.0297 81.08C79.1497 80.336 78.7177 79.664 77.7337 79.064C77.5177 78.92 76.9657 78.632 76.1257 78.2C75.2857 77.768 74.6617 77.432 74.2777 77.168C72.5977 76.04 71.9017 74.552 72.1657 72.704C72.3817 71.288 73.0777 70.136 74.2297 69.272C75.4057 68.384 76.8457 67.952 78.5497 67.952C80.7817 67.952 82.5337 68.768 83.8537 70.424L81.6457 72.68C80.6617 71.552 79.5337 71 78.2617 71C76.8457 71 75.7657 71.744 75.6457 72.896C75.5257 73.688 75.9817 74.336 77.0137 74.888L78.1417 75.488C79.2937 76.064 80.1337 76.544 80.6857 76.928C82.2937 78.008 82.9417 79.472 82.6537 81.32C82.4137 82.88 81.6457 84.104 80.3737 84.992C79.1017 85.88 77.5897 86.312 75.8617 86.312Z" fill="#3D9BD6"/>
<path d="M92.704 86L94.888 71.432H89.752L90.232 68.264H103.768L103.288 71.432H98.176L96.016 86H92.704ZM112.787 74.72L113.051 72.968H116.027L114.083 86H111.107L111.347 84.344C110.003 85.664 108.491 86.312 106.835 86.312C104.891 86.312 103.403 85.616 102.395 84.2C101.387 82.784 101.027 81.104 101.339 79.136C101.651 77.192 102.467 75.632 103.835 74.456C105.203 73.256 106.811 72.656 108.659 72.656C110.411 72.656 111.779 73.352 112.787 74.72ZM107.699 83.456C108.827 83.456 109.787 83.072 110.603 82.28C111.443 81.488 111.923 80.552 112.091 79.448C112.259 78.368 112.019 77.456 111.419 76.688C110.819 75.896 109.955 75.512 108.851 75.512C107.771 75.512 106.859 75.848 106.067 76.544C105.275 77.24 104.771 78.104 104.555 79.136C104.339 80.288 104.507 81.296 105.059 82.16C105.635 83.024 106.523 83.456 107.699 83.456ZM125.118 79.424L128.406 86H124.806L122.814 81.584L119.406 86H115.782L121.134 79.328L118.206 72.968H121.782L123.534 77.096L126.678 72.968H130.23L125.118 79.424ZM134.166 71.408C132.942 71.408 132.174 70.52 132.366 69.344C132.534 68.264 133.47 67.472 134.55 67.472C135.702 67.472 136.494 68.36 136.326 69.536C136.158 70.616 135.222 71.408 134.166 71.408ZM135.39 72.968L133.446 86H130.302L132.27 72.968H135.39Z" fill="#FFD230"/>
</svg>
