<svg width="24" height="24" viewBox="0 0 24 24" fill="none" xmlns="http://www.w3.org/2000/svg">
<g clip-path="url(#clip0_311_1003)">
<path d="M11.9993 14.1187C12.3891 14.1187 12.7051 13.8027 12.7051 13.4129C12.7051 13.023 12.3891 12.707 11.9993 12.707C11.6095 12.707 11.2935 13.023 11.2935 13.4129C11.2935 13.8027 11.6095 14.1187 11.9993 14.1187Z" fill="#AAACAE"/>
<path d="M5.45229 9.24351C4.37131 10.935 3.99199 12.974 4.38754 14.9447C6.62992 14.645 8.69296 16.1726 9.10202 18.3537H14.8962C15.3036 16.1797 17.3621 14.6446 19.6115 14.9448C19.9915 13.0526 19.6701 11.0013 18.5469 9.24355C14.2621 8.72786 9.85813 8.71238 5.45229 9.24351ZM14.1171 13.4128C14.1171 14.5804 13.1672 15.5303 11.9996 15.5303C10.832 15.5303 9.88203 14.5804 9.88203 13.4128C9.88203 12.2452 10.832 11.2953 11.9996 11.2953C13.1672 11.2953 14.1171 12.2452 14.1171 13.4128Z" fill="#AAACAE"/>
<path d="M20.9684 5.44202L18.9645 7.44591C21.9895 10.972 21.8751 16.1378 18.8384 19.5304L18.628 19.7654H5.37078C5.28607 19.6294 2.82338 17.3707 2.82338 13.4128C2.82338 11.1365 3.65689 9.05143 5.03423 7.44591L3.03033 5.44202C1.07147 7.64044 0 10.4441 0 13.4128C0 19.3554 4.18552 22.4878 4.26227 22.5888H19.7365L19.9366 22.4122C24.8941 18.0373 25.4075 10.4239 20.9684 5.44202Z" fill="#AAACAE"/>
<path d="M17.9665 6.44769L19.9704 4.4438C15.4344 0.401986 8.56871 0.398504 4.02881 4.4438L6.0327 6.44769C9.46866 3.50003 14.529 3.49872 17.9665 6.44769Z" fill="#AAACAE"/>
</g>
<defs>
<clipPath id="clip0_311_1003">
<rect width="24" height="24" fill="white"/>
</clipPath>
</defs>
</svg>
