<svg width="228" height="104" viewBox="0 0 228 104" fill="none" xmlns="http://www.w3.org/2000/svg">
<path d="M25.536 69.704C18.432 69.704 12.8 67.336 8.704 62.536C4.672 57.736 3.136 51.72 4.224 44.488C5.312 37.384 8.448 31.624 13.76 27.336C19.072 23.048 25.216 20.872 32.192 20.872C40.192 20.872 46.976 24.136 50.624 28.936L44.288 34.824C41.28 31.112 37.12 29.256 31.808 29.256C27.072 29.256 22.912 30.728 19.392 33.672C15.872 36.616 13.76 40.52 13.056 45.384C12.48 49.8 13.376 53.576 15.872 56.712C18.368 59.784 21.888 61.32 26.432 61.32C31.808 61.32 37.056 59.08 40.576 55.688L41.6 48.776L27.968 48.84L29.12 41.096H50.88L48.192 60.296C41.472 66.568 33.92 69.704 25.536 69.704ZM68.9645 69.832C61.7325 69.832 55.6525 66.44 52.7725 59.976L59.4285 54.664C61.4765 59.08 65.2525 61.512 69.5405 61.512C73.8285 61.512 76.9645 59.016 77.4125 55.88C77.7325 53.896 76.5805 52.104 73.9565 50.504C73.3805 50.12 71.9085 49.352 69.6685 48.2C67.4285 47.048 65.7645 46.152 64.7405 45.448C60.2605 42.44 58.4045 38.472 59.1085 33.544C59.6845 29.768 61.5405 26.696 64.6125 24.392C67.7485 22.024 71.5885 20.872 76.1325 20.872C82.0845 20.872 86.7565 23.048 90.2765 27.464L84.3885 33.48C81.7645 30.472 78.7565 29 75.3645 29C71.5885 29 68.7085 30.984 68.3885 34.056C68.0685 36.168 69.2845 37.896 72.0365 39.368L75.0445 40.968C78.1165 42.504 80.3565 43.784 81.8285 44.808C86.1165 47.688 87.8445 51.592 87.0765 56.52C86.4365 60.68 84.3885 63.944 80.9965 66.312C77.6045 68.68 73.5725 69.832 68.9645 69.832Z" fill="#3D9BD6"/>
<path d="M110.544 69L116.368 30.152H102.672L103.952 21.704H140.048L138.768 30.152H125.136L119.376 69H110.544ZM164.099 38.92L164.803 34.248H172.739L167.555 69H159.619L160.259 64.584C156.675 68.104 152.643 69.832 148.227 69.832C143.043 69.832 139.075 67.976 136.387 64.2C133.699 60.424 132.739 55.944 133.571 50.696C134.403 45.512 136.579 41.352 140.227 38.216C143.875 35.016 148.163 33.416 153.091 33.416C157.763 33.416 161.411 35.272 164.099 38.92ZM150.531 62.216C153.539 62.216 156.099 61.192 158.275 59.08C160.515 56.968 161.795 54.472 162.243 51.528C162.691 48.648 162.051 46.216 160.451 44.168C158.851 42.056 156.547 41.032 153.603 41.032C150.723 41.032 148.291 41.928 146.179 43.784C144.067 45.64 142.723 47.944 142.147 50.696C141.571 53.768 142.019 56.456 143.491 58.76C145.027 61.064 147.395 62.216 150.531 62.216ZM196.982 51.464L205.75 69H196.15L190.838 57.224L181.75 69H172.086L186.358 51.208L178.55 34.248H188.086L192.758 45.256L201.142 34.248H210.614L196.982 51.464ZM221.11 30.088C217.845 30.088 215.798 27.72 216.31 24.584C216.758 21.704 219.254 19.592 222.134 19.592C225.206 19.592 227.318 21.96 226.87 25.096C226.422 27.976 223.926 30.088 221.11 30.088ZM224.374 34.248L219.19 69H210.806L216.054 34.248H224.374Z" fill="#FFD230"/>
</svg>
