<svg width="40" height="40" viewBox="0 0 40 40" fill="none" xmlns="http://www.w3.org/2000/svg">
<rect width="40" height="40" rx="8" fill="white"/>
<g clip-path="url(#clip0_230_21)">
<path d="M29.9 26.7533L29.6733 26.5534C29.0303 25.9804 28.4674 25.3234 28 24.6C27.4895 23.6017 27.1835 22.5115 27.1 21.3934V18.1C27.1044 16.3438 26.4673 14.6463 25.3085 13.3267C24.1496 12.007 22.5488 11.1559 20.8067 10.9333V10.0733C20.8067 9.83731 20.7129 9.61093 20.546 9.44402C20.3791 9.27712 20.1527 9.18335 19.9167 9.18335C19.6806 9.18335 19.4542 9.27712 19.2873 9.44402C19.1204 9.61093 19.0267 9.83731 19.0267 10.0733V10.9467C17.3002 11.1853 15.7186 12.0415 14.575 13.3568C13.4314 14.672 12.8031 16.3571 12.8067 18.1V21.3934C12.7232 22.5115 12.4172 23.6017 11.9067 24.6C11.4472 25.3216 10.8935 25.9785 10.26 26.5534L10.0333 26.7533V28.6334H29.9V26.7533Z" fill="#3D9BD6"/>
<path d="M18.2134 29.3333C18.2718 29.7558 18.4812 30.143 18.8029 30.4232C19.1246 30.7035 19.5368 30.8578 19.9634 30.8578C20.39 30.8578 20.8022 30.7035 21.1239 30.4232C21.4455 30.143 21.6549 29.7558 21.7134 29.3333H18.2134Z" fill="#3D9BD6"/>
</g>
<defs>
<clipPath id="clip0_230_21">
<rect width="24" height="24" fill="white" transform="translate(8 8)"/>
</clipPath>
</defs>
</svg>
