<svg width="24" height="22" viewBox="0 0 24 22" fill="none" xmlns="http://www.w3.org/2000/svg">
<path d="M11.9993 13.1187C12.3891 13.1187 12.7051 12.8026 12.7051 12.4128C12.7051 12.023 12.3891 11.707 11.9993 11.707C11.6095 11.707 11.2935 12.023 11.2935 12.4128C11.2935 12.8026 11.6095 13.1187 11.9993 13.1187Z" fill="white"/>
<path d="M5.45229 8.24357C4.37131 9.93505 3.99199 11.9741 4.38754 13.9448C6.62992 13.645 8.69296 15.1727 9.10202 17.3537H14.8962C15.3036 15.1798 17.3621 13.6446 19.6115 13.9448C19.9915 12.0526 19.6701 10.0014 18.5469 8.24361C14.2621 7.72792 9.85813 7.71244 5.45229 8.24357ZM14.1171 12.4129C14.1171 13.5805 13.1672 14.5304 11.9996 14.5304C10.832 14.5304 9.88203 13.5805 9.88203 12.4129C9.88203 11.2452 10.832 10.2953 11.9996 10.2953C13.1672 10.2953 14.1171 11.2452 14.1171 12.4129Z" fill="white"/>
<path d="M20.9684 4.44202L18.9645 6.44591C21.9895 9.97198 21.8751 15.1378 18.8384 18.5304L18.628 18.7654H5.37078C5.28607 18.6294 2.82338 16.3707 2.82338 12.4128C2.82338 10.1365 3.65689 8.05143 5.03423 6.44591L3.03033 4.44202C1.07147 6.64044 0 9.4441 0 12.4128C0 18.3554 4.18552 21.4878 4.26227 21.5888H19.7365L19.9366 21.4122C24.8941 17.0373 25.4075 9.42392 20.9684 4.44202Z" fill="white"/>
<path d="M17.9665 5.44769L19.9704 3.4438C15.4344 -0.598014 8.56871 -0.601496 4.02881 3.4438L6.0327 5.44769C9.46866 2.50003 14.529 2.49872 17.9665 5.44769Z" fill="white"/>
</svg>
